# xmcd CD database file
#
# Track frame offsets:
#	150
#	4915
#	25530
#	43927
#	62585
#	82890
#	101432
#	120162
#	140510
#	158075
#	178097
#	197347
#
# Disc length: 2940 seconds
#
# Revision: 4
# Processed by: cddbd v1.5.2PL0 Copyright (c) Steve Scherf et al.
# Submitted via: CDex 1.70beta2
#
DISCID=890b7a0c
DTITLE=HAREEM - 다중인격자
DYEAR=2001
DGENRE=Pop
TTITLE0=열한시간 삼십분의 깊은 잠
TTITLE1=출국
TTITLE2=Sorry... Sorry...
TTITLE3=첫 경험
TTITLE4=Oh! She's My Friend
TTITLE5=밤으로
TTITLE6=난치병
TTITLE7=Dying Man
TTITLE8=너를 비워
TTITLE9=Break Down
TTITLE10=You Are My Sunshine
TTITLE11=고해성사
EXTD=YEAR: 2001
EXTT0=
EXTT1=
EXTT2=
EXTT3=
EXTT4=
EXTT5=
EXTT6=
EXTT7=
EXTT8=
EXTT9=
EXTT10=
EXTT11=
PLAYORDER=
